<mxfile host="app.diagrams.net" modified="2023-11-29T01:49:37.113Z" agent="Mozilla/5.0 (Windows NT 10.0; Win64; x64) AppleWebKit/537.36 (KHTML, like Gecko) Chrome/119.0.0.0 Safari/537.36" etag="TsGpfA8AAL6P-zOHksju" version="22.1.4" type="google">
  <diagram id="R2lEEEUBdFMjLlhIrx00" name="Page-1">
    <mxGraphModel dx="3887" dy="2142" grid="1" gridSize="10" guides="1" tooltips="1" connect="1" arrows="1" fold="1" page="1" pageScale="1" pageWidth="850" pageHeight="1100" math="0" shadow="0" extFonts="Permanent Marker^https://fonts.googleapis.com/css?family=Permanent+Marker">
      <root>
        <mxCell id="0" />
        <mxCell id="1" parent="0" />
        <mxCell id="k0P5BtyZGf_VFYjJKuf1-286" style="edgeStyle=orthogonalEdgeStyle;rounded=0;orthogonalLoop=1;jettySize=auto;html=1;exitX=0.5;exitY=1;exitDx=0;exitDy=0;entryX=1;entryY=0.5;entryDx=0;entryDy=0;" parent="1" source="Xfo1xRRLc3Q7_K_SqQdS-2" target="k0P5BtyZGf_VFYjJKuf1-282" edge="1">
          <mxGeometry relative="1" as="geometry">
            <Array as="points">
              <mxPoint x="320" y="590" />
              <mxPoint x="320" y="733" />
            </Array>
          </mxGeometry>
        </mxCell>
        <mxCell id="UgpuYVLv6B93RDD76h3x-20" style="edgeStyle=orthogonalEdgeStyle;rounded=0;orthogonalLoop=1;jettySize=auto;html=1;exitX=0.25;exitY=1;exitDx=0;exitDy=0;entryX=1;entryY=0.5;entryDx=0;entryDy=0;" parent="1" source="Xfo1xRRLc3Q7_K_SqQdS-2" target="8IoTxwL0WPlRIAvPKE_G-1" edge="1">
          <mxGeometry relative="1" as="geometry">
            <Array as="points">
              <mxPoint x="340" y="600" />
              <mxPoint x="340" y="830" />
            </Array>
          </mxGeometry>
        </mxCell>
        <mxCell id="Xfo1xRRLc3Q7_K_SqQdS-2" value="docente&lt;span style=&quot;white-space: pre;&quot;&gt;&#x9;&lt;/span&gt;" style="rounded=0;whiteSpace=wrap;html=1;" parent="1" vertex="1">
          <mxGeometry x="300" y="540" width="120" height="60" as="geometry" />
        </mxCell>
        <mxCell id="GlrDU-AuZKwdCGhjp-TW-35" style="edgeStyle=orthogonalEdgeStyle;rounded=0;orthogonalLoop=1;jettySize=auto;html=1;exitX=0.75;exitY=1;exitDx=0;exitDy=0;entryX=0.5;entryY=0;entryDx=0;entryDy=0;" parent="1" source="Xfo1xRRLc3Q7_K_SqQdS-3" target="k0P5BtyZGf_VFYjJKuf1-64" edge="1">
          <mxGeometry relative="1" as="geometry" />
        </mxCell>
        <mxCell id="Xfo1xRRLc3Q7_K_SqQdS-3" value="carrera&lt;span style=&quot;white-space: pre;&quot;&gt;&#x9;&lt;/span&gt;" style="rounded=0;whiteSpace=wrap;html=1;fillColor=#f8cecc;strokeColor=#b85450;" parent="1" vertex="1">
          <mxGeometry x="-185" y="130" width="120" height="60" as="geometry" />
        </mxCell>
        <mxCell id="k0P5BtyZGf_VFYjJKuf1-77" style="edgeStyle=orthogonalEdgeStyle;rounded=0;orthogonalLoop=1;jettySize=auto;html=1;exitX=0.5;exitY=1;exitDx=0;exitDy=0;entryX=0.5;entryY=0;entryDx=0;entryDy=0;" parent="1" source="Xfo1xRRLc3Q7_K_SqQdS-16" target="Xfo1xRRLc3Q7_K_SqQdS-3" edge="1">
          <mxGeometry relative="1" as="geometry" />
        </mxCell>
        <mxCell id="Xfo1xRRLc3Q7_K_SqQdS-16" value="lugar en que se imparte" style="ellipse;whiteSpace=wrap;html=1;" parent="1" vertex="1">
          <mxGeometry x="-425" y="-20" width="120" height="80" as="geometry" />
        </mxCell>
        <mxCell id="k0P5BtyZGf_VFYjJKuf1-76" style="edgeStyle=orthogonalEdgeStyle;rounded=0;orthogonalLoop=1;jettySize=auto;html=1;exitX=0.5;exitY=1;exitDx=0;exitDy=0;" parent="1" source="Xfo1xRRLc3Q7_K_SqQdS-17" target="Xfo1xRRLc3Q7_K_SqQdS-3" edge="1">
          <mxGeometry relative="1" as="geometry" />
        </mxCell>
        <mxCell id="Xfo1xRRLc3Q7_K_SqQdS-17" value="malla curricular" style="ellipse;whiteSpace=wrap;html=1;" parent="1" vertex="1">
          <mxGeometry x="-185" y="-20" width="120" height="80" as="geometry" />
        </mxCell>
        <mxCell id="k0P5BtyZGf_VFYjJKuf1-74" style="edgeStyle=orthogonalEdgeStyle;rounded=0;orthogonalLoop=1;jettySize=auto;html=1;exitX=0.5;exitY=1;exitDx=0;exitDy=0;entryX=0.5;entryY=0;entryDx=0;entryDy=0;" parent="1" source="Xfo1xRRLc3Q7_K_SqQdS-18" target="Xfo1xRRLc3Q7_K_SqQdS-3" edge="1">
          <mxGeometry relative="1" as="geometry" />
        </mxCell>
        <mxCell id="Xfo1xRRLc3Q7_K_SqQdS-18" value="codigo de carrera" style="ellipse;whiteSpace=wrap;html=1;fontColor=#FF0000;" parent="1" vertex="1">
          <mxGeometry x="-305" y="-20" width="120" height="80" as="geometry" />
        </mxCell>
        <mxCell id="FjVW4bG0Bxn3nCRWK1Ne-57" style="edgeStyle=orthogonalEdgeStyle;rounded=0;orthogonalLoop=1;jettySize=auto;html=1;exitX=0;exitY=0.5;exitDx=0;exitDy=0;entryX=1;entryY=0.5;entryDx=0;entryDy=0;" parent="1" source="Xfo1xRRLc3Q7_K_SqQdS-24" target="Xfo1xRRLc3Q7_K_SqQdS-2" edge="1">
          <mxGeometry relative="1" as="geometry" />
        </mxCell>
        <mxCell id="Xfo1xRRLc3Q7_K_SqQdS-24" value="modulos que imparte" style="ellipse;whiteSpace=wrap;html=1;" parent="1" vertex="1">
          <mxGeometry x="470" y="595" width="120" height="80" as="geometry" />
        </mxCell>
        <mxCell id="FjVW4bG0Bxn3nCRWK1Ne-55" style="edgeStyle=orthogonalEdgeStyle;rounded=0;orthogonalLoop=1;jettySize=auto;html=1;exitX=0;exitY=0.5;exitDx=0;exitDy=0;entryX=1;entryY=0.5;entryDx=0;entryDy=0;" parent="1" source="Xfo1xRRLc3Q7_K_SqQdS-25" target="Xfo1xRRLc3Q7_K_SqQdS-2" edge="1">
          <mxGeometry relative="1" as="geometry" />
        </mxCell>
        <mxCell id="Xfo1xRRLc3Q7_K_SqQdS-25" value="nombre&lt;br&gt;&lt;br&gt;" style="ellipse;whiteSpace=wrap;html=1;" parent="1" vertex="1">
          <mxGeometry x="470" y="430" width="120" height="80" as="geometry" />
        </mxCell>
        <mxCell id="FjVW4bG0Bxn3nCRWK1Ne-53" style="edgeStyle=orthogonalEdgeStyle;rounded=0;orthogonalLoop=1;jettySize=auto;html=1;exitX=0;exitY=0.5;exitDx=0;exitDy=0;" parent="1" source="Xfo1xRRLc3Q7_K_SqQdS-26" target="Xfo1xRRLc3Q7_K_SqQdS-2" edge="1">
          <mxGeometry relative="1" as="geometry" />
        </mxCell>
        <mxCell id="Xfo1xRRLc3Q7_K_SqQdS-26" value="RUN" style="ellipse;whiteSpace=wrap;html=1;fontColor=#ff0000;" parent="1" vertex="1">
          <mxGeometry x="470" y="510" width="120" height="80" as="geometry" />
        </mxCell>
        <mxCell id="UgpuYVLv6B93RDD76h3x-21" style="edgeStyle=orthogonalEdgeStyle;rounded=0;orthogonalLoop=1;jettySize=auto;html=1;exitX=0;exitY=0.5;exitDx=0;exitDy=0;entryX=0.25;entryY=1;entryDx=0;entryDy=0;" parent="1" source="8IoTxwL0WPlRIAvPKE_G-1" target="GlrDU-AuZKwdCGhjp-TW-6" edge="1">
          <mxGeometry relative="1" as="geometry">
            <Array as="points">
              <mxPoint x="150" y="830" />
              <mxPoint x="-700" y="830" />
              <mxPoint x="-700" y="330" />
              <mxPoint x="-640" y="330" />
            </Array>
          </mxGeometry>
        </mxCell>
        <mxCell id="8IoTxwL0WPlRIAvPKE_G-1" value="imparte" style="rhombus;whiteSpace=wrap;html=1;" parent="1" vertex="1">
          <mxGeometry x="145" y="800" width="60" height="60" as="geometry" />
        </mxCell>
        <mxCell id="ZILDVpC8t0Dbu7WW6aIy-4" value="M:1" style="text;html=1;strokeColor=none;fillColor=none;align=center;verticalAlign=middle;whiteSpace=wrap;rounded=0;" parent="1" vertex="1">
          <mxGeometry x="145" y="770" width="60" height="30" as="geometry" />
        </mxCell>
        <mxCell id="k0P5BtyZGf_VFYjJKuf1-223" style="edgeStyle=orthogonalEdgeStyle;rounded=0;orthogonalLoop=1;jettySize=auto;html=1;exitX=0;exitY=0.5;exitDx=0;exitDy=0;entryX=1;entryY=0.5;entryDx=0;entryDy=0;" parent="1" source="k0P5BtyZGf_VFYjJKuf1-20" target="k0P5BtyZGf_VFYjJKuf1-27" edge="1">
          <mxGeometry relative="1" as="geometry" />
        </mxCell>
        <mxCell id="Qntxkk4oNxxuxuQH-sya-13" style="edgeStyle=orthogonalEdgeStyle;rounded=0;orthogonalLoop=1;jettySize=auto;html=1;exitX=0.75;exitY=1;exitDx=0;exitDy=0;entryX=0.5;entryY=0;entryDx=0;entryDy=0;" parent="1" source="k0P5BtyZGf_VFYjJKuf1-20" target="k0P5BtyZGf_VFYjJKuf1-249" edge="1">
          <mxGeometry relative="1" as="geometry" />
        </mxCell>
        <mxCell id="Qntxkk4oNxxuxuQH-sya-15" style="edgeStyle=orthogonalEdgeStyle;rounded=0;orthogonalLoop=1;jettySize=auto;html=1;exitX=0.25;exitY=1;exitDx=0;exitDy=0;entryX=1;entryY=0.5;entryDx=0;entryDy=0;" parent="1" source="k0P5BtyZGf_VFYjJKuf1-20" target="Qntxkk4oNxxuxuQH-sya-12" edge="1">
          <mxGeometry relative="1" as="geometry" />
        </mxCell>
        <mxCell id="Qntxkk4oNxxuxuQH-sya-24" style="edgeStyle=orthogonalEdgeStyle;rounded=0;orthogonalLoop=1;jettySize=auto;html=1;exitX=0.5;exitY=0;exitDx=0;exitDy=0;entryX=1;entryY=0.5;entryDx=0;entryDy=0;" parent="1" source="k0P5BtyZGf_VFYjJKuf1-20" target="Qntxkk4oNxxuxuQH-sya-23" edge="1">
          <mxGeometry relative="1" as="geometry">
            <Array as="points">
              <mxPoint x="310" y="130" />
              <mxPoint x="310" y="-50" />
            </Array>
          </mxGeometry>
        </mxCell>
        <mxCell id="257k97ebxzjSR1Q1fA8a-74" style="edgeStyle=orthogonalEdgeStyle;rounded=0;orthogonalLoop=1;jettySize=auto;html=1;exitX=0.75;exitY=0;exitDx=0;exitDy=0;entryX=1;entryY=0.5;entryDx=0;entryDy=0;" parent="1" source="k0P5BtyZGf_VFYjJKuf1-20" target="Qntxkk4oNxxuxuQH-sya-32" edge="1">
          <mxGeometry relative="1" as="geometry" />
        </mxCell>
        <mxCell id="k0P5BtyZGf_VFYjJKuf1-20" value="jefe de carrera&lt;br&gt;" style="rounded=0;whiteSpace=wrap;html=1;fillColor=#f8cecc;strokeColor=#b85450;" parent="1" vertex="1">
          <mxGeometry x="305" y="130" width="120" height="60" as="geometry" />
        </mxCell>
        <mxCell id="Qntxkk4oNxxuxuQH-sya-9" style="edgeStyle=orthogonalEdgeStyle;rounded=0;orthogonalLoop=1;jettySize=auto;html=1;exitX=0;exitY=0.5;exitDx=0;exitDy=0;entryX=1;entryY=0.5;entryDx=0;entryDy=0;" parent="1" source="k0P5BtyZGf_VFYjJKuf1-22" target="k0P5BtyZGf_VFYjJKuf1-20" edge="1">
          <mxGeometry relative="1" as="geometry" />
        </mxCell>
        <mxCell id="k0P5BtyZGf_VFYjJKuf1-22" value="edad" style="ellipse;whiteSpace=wrap;html=1;" parent="1" vertex="1">
          <mxGeometry x="490" y="120" width="120" height="80" as="geometry" />
        </mxCell>
        <mxCell id="Qntxkk4oNxxuxuQH-sya-11" style="edgeStyle=orthogonalEdgeStyle;rounded=0;orthogonalLoop=1;jettySize=auto;html=1;exitX=0;exitY=0.5;exitDx=0;exitDy=0;entryX=1;entryY=0.5;entryDx=0;entryDy=0;" parent="1" source="k0P5BtyZGf_VFYjJKuf1-24" target="k0P5BtyZGf_VFYjJKuf1-20" edge="1">
          <mxGeometry relative="1" as="geometry" />
        </mxCell>
        <mxCell id="k0P5BtyZGf_VFYjJKuf1-24" value="RUN" style="ellipse;whiteSpace=wrap;html=1;strokeColor=#330000;fontColor=#FF2424;" parent="1" vertex="1">
          <mxGeometry x="490" y="200" width="120" height="80" as="geometry" />
        </mxCell>
        <mxCell id="Qntxkk4oNxxuxuQH-sya-7" style="edgeStyle=orthogonalEdgeStyle;rounded=0;orthogonalLoop=1;jettySize=auto;html=1;exitX=0;exitY=0.5;exitDx=0;exitDy=0;entryX=1;entryY=0.5;entryDx=0;entryDy=0;" parent="1" source="k0P5BtyZGf_VFYjJKuf1-26" target="k0P5BtyZGf_VFYjJKuf1-20" edge="1">
          <mxGeometry relative="1" as="geometry" />
        </mxCell>
        <mxCell id="k0P5BtyZGf_VFYjJKuf1-26" value="nombre" style="ellipse;whiteSpace=wrap;html=1;" parent="1" vertex="1">
          <mxGeometry x="490" y="40" width="120" height="80" as="geometry" />
        </mxCell>
        <mxCell id="k0P5BtyZGf_VFYjJKuf1-224" style="edgeStyle=orthogonalEdgeStyle;rounded=0;orthogonalLoop=1;jettySize=auto;html=1;exitX=0;exitY=0.5;exitDx=0;exitDy=0;entryX=1;entryY=0.5;entryDx=0;entryDy=0;" parent="1" source="k0P5BtyZGf_VFYjJKuf1-27" target="Xfo1xRRLc3Q7_K_SqQdS-3" edge="1">
          <mxGeometry relative="1" as="geometry" />
        </mxCell>
        <mxCell id="k0P5BtyZGf_VFYjJKuf1-27" value="administra" style="rhombus;whiteSpace=wrap;html=1;" parent="1" vertex="1">
          <mxGeometry x="50" y="125" width="70" height="70" as="geometry" />
        </mxCell>
        <mxCell id="k0P5BtyZGf_VFYjJKuf1-289" style="edgeStyle=orthogonalEdgeStyle;rounded=0;orthogonalLoop=1;jettySize=auto;html=1;exitX=0.5;exitY=1;exitDx=0;exitDy=0;entryX=0;entryY=0;entryDx=0;entryDy=0;" parent="1" source="k0P5BtyZGf_VFYjJKuf1-64" target="k0P5BtyZGf_VFYjJKuf1-173" edge="1">
          <mxGeometry relative="1" as="geometry" />
        </mxCell>
        <mxCell id="k0P5BtyZGf_VFYjJKuf1-64" value="se compone de" style="rhombus;whiteSpace=wrap;html=1;" parent="1" vertex="1">
          <mxGeometry x="-220" y="320" width="80" height="80" as="geometry" />
        </mxCell>
        <mxCell id="257k97ebxzjSR1Q1fA8a-11" style="edgeStyle=orthogonalEdgeStyle;rounded=0;orthogonalLoop=1;jettySize=auto;html=1;exitX=0;exitY=0.5;exitDx=0;exitDy=0;entryX=1;entryY=0.75;entryDx=0;entryDy=0;" parent="1" source="k0P5BtyZGf_VFYjJKuf1-70" target="k0P5BtyZGf_VFYjJKuf1-127" edge="1">
          <mxGeometry relative="1" as="geometry" />
        </mxCell>
        <mxCell id="k0P5BtyZGf_VFYjJKuf1-70" value="se imparte en" style="rhombus;whiteSpace=wrap;html=1;" parent="1" vertex="1">
          <mxGeometry x="-442.5" y="540" width="70" height="70" as="geometry" />
        </mxCell>
        <mxCell id="k0P5BtyZGf_VFYjJKuf1-83" value="N:M" style="text;html=1;strokeColor=none;fillColor=none;align=center;verticalAlign=middle;whiteSpace=wrap;rounded=0;rotation=90;" parent="1" vertex="1">
          <mxGeometry x="-185" y="308.33" width="60" height="30" as="geometry" />
        </mxCell>
        <mxCell id="k0P5BtyZGf_VFYjJKuf1-93" value="Jornada" style="rounded=0;whiteSpace=wrap;html=1;fillColor=#f8cecc;strokeColor=#b85450;" parent="1" vertex="1">
          <mxGeometry x="-905" y="343.33" width="120" height="60" as="geometry" />
        </mxCell>
        <mxCell id="UgpuYVLv6B93RDD76h3x-9" style="edgeStyle=orthogonalEdgeStyle;rounded=0;orthogonalLoop=1;jettySize=auto;html=1;exitX=1;exitY=0.5;exitDx=0;exitDy=0;entryX=0.75;entryY=0;entryDx=0;entryDy=0;" parent="1" source="k0P5BtyZGf_VFYjJKuf1-94" target="k0P5BtyZGf_VFYjJKuf1-93" edge="1">
          <mxGeometry relative="1" as="geometry" />
        </mxCell>
        <mxCell id="k0P5BtyZGf_VFYjJKuf1-94" value="vespertina" style="ellipse;whiteSpace=wrap;html=1;" parent="1" vertex="1">
          <mxGeometry x="-940" y="250" width="90" height="60" as="geometry" />
        </mxCell>
        <mxCell id="UgpuYVLv6B93RDD76h3x-12" style="edgeStyle=orthogonalEdgeStyle;rounded=0;orthogonalLoop=1;jettySize=auto;html=1;exitX=1;exitY=0.5;exitDx=0;exitDy=0;entryX=0.75;entryY=0;entryDx=0;entryDy=0;" parent="1" source="k0P5BtyZGf_VFYjJKuf1-95" target="k0P5BtyZGf_VFYjJKuf1-93" edge="1">
          <mxGeometry relative="1" as="geometry" />
        </mxCell>
        <mxCell id="k0P5BtyZGf_VFYjJKuf1-95" value="diurna" style="ellipse;whiteSpace=wrap;html=1;" parent="1" vertex="1">
          <mxGeometry x="-940" y="115" width="97.5" height="65" as="geometry" />
        </mxCell>
        <mxCell id="UgpuYVLv6B93RDD76h3x-11" style="edgeStyle=orthogonalEdgeStyle;rounded=0;orthogonalLoop=1;jettySize=auto;html=1;exitX=1;exitY=0.5;exitDx=0;exitDy=0;entryX=0.75;entryY=0;entryDx=0;entryDy=0;" parent="1" source="k0P5BtyZGf_VFYjJKuf1-102" target="k0P5BtyZGf_VFYjJKuf1-93" edge="1">
          <mxGeometry relative="1" as="geometry" />
        </mxCell>
        <mxCell id="k0P5BtyZGf_VFYjJKuf1-102" value="Id_jornada" style="ellipse;whiteSpace=wrap;html=1;fontColor=#FF1008;" parent="1" vertex="1">
          <mxGeometry x="-940" y="180" width="105" height="70" as="geometry" />
        </mxCell>
        <mxCell id="k0P5BtyZGf_VFYjJKuf1-127" value="Sala" style="rounded=0;whiteSpace=wrap;html=1;" parent="1" vertex="1">
          <mxGeometry x="-635" y="507.5" width="120" height="60" as="geometry" />
        </mxCell>
        <mxCell id="257k97ebxzjSR1Q1fA8a-44" style="edgeStyle=orthogonalEdgeStyle;rounded=0;orthogonalLoop=1;jettySize=auto;html=1;exitX=1;exitY=0.5;exitDx=0;exitDy=0;entryX=0.75;entryY=1;entryDx=0;entryDy=0;" parent="1" source="k0P5BtyZGf_VFYjJKuf1-129" target="k0P5BtyZGf_VFYjJKuf1-127" edge="1">
          <mxGeometry relative="1" as="geometry" />
        </mxCell>
        <mxCell id="k0P5BtyZGf_VFYjJKuf1-129" value="tipo de sala" style="ellipse;whiteSpace=wrap;html=1;" parent="1" vertex="1">
          <mxGeometry x="-685.06" y="740" width="120" height="80" as="geometry" />
        </mxCell>
        <mxCell id="257k97ebxzjSR1Q1fA8a-47" style="edgeStyle=orthogonalEdgeStyle;rounded=0;orthogonalLoop=1;jettySize=auto;html=1;exitX=1;exitY=0.5;exitDx=0;exitDy=0;entryX=0.75;entryY=1;entryDx=0;entryDy=0;" parent="1" source="k0P5BtyZGf_VFYjJKuf1-131" target="k0P5BtyZGf_VFYjJKuf1-127" edge="1">
          <mxGeometry relative="1" as="geometry" />
        </mxCell>
        <mxCell id="k0P5BtyZGf_VFYjJKuf1-131" value="capacidad de sala" style="ellipse;whiteSpace=wrap;html=1;" parent="1" vertex="1">
          <mxGeometry x="-685.06" y="580" width="120" height="80" as="geometry" />
        </mxCell>
        <mxCell id="Qntxkk4oNxxuxuQH-sya-28" style="edgeStyle=orthogonalEdgeStyle;rounded=0;orthogonalLoop=1;jettySize=auto;html=1;exitX=1;exitY=0.5;exitDx=0;exitDy=0;entryX=0.75;entryY=1;entryDx=0;entryDy=0;" parent="1" source="k0P5BtyZGf_VFYjJKuf1-133" target="k0P5BtyZGf_VFYjJKuf1-127" edge="1">
          <mxGeometry relative="1" as="geometry">
            <mxPoint x="-540" y="598" as="targetPoint" />
          </mxGeometry>
        </mxCell>
        <mxCell id="k0P5BtyZGf_VFYjJKuf1-133" value="codigo de sala&lt;span style=&quot;white-space: pre;&quot;&gt;&#x9;&lt;/span&gt;" style="ellipse;whiteSpace=wrap;html=1;fontColor=#FF0000;" parent="1" vertex="1">
          <mxGeometry x="-685.06" y="660" width="120" height="80" as="geometry" />
        </mxCell>
        <mxCell id="257k97ebxzjSR1Q1fA8a-17" style="edgeStyle=orthogonalEdgeStyle;rounded=0;orthogonalLoop=1;jettySize=auto;html=1;exitX=0.25;exitY=1;exitDx=0;exitDy=0;entryX=1;entryY=0.5;entryDx=0;entryDy=0;" parent="1" source="k0P5BtyZGf_VFYjJKuf1-173" target="k0P5BtyZGf_VFYjJKuf1-70" edge="1">
          <mxGeometry relative="1" as="geometry" />
        </mxCell>
        <mxCell id="k0P5BtyZGf_VFYjJKuf1-173" value="modulo&lt;span style=&quot;white-space: pre;&quot;&gt;&#x9;&lt;/span&gt;" style="rounded=0;whiteSpace=wrap;html=1;" parent="1" vertex="1">
          <mxGeometry x="-185" y="490" width="120" height="60" as="geometry" />
        </mxCell>
        <mxCell id="257k97ebxzjSR1Q1fA8a-34" style="edgeStyle=orthogonalEdgeStyle;rounded=0;orthogonalLoop=1;jettySize=auto;html=1;exitX=0.5;exitY=0;exitDx=0;exitDy=0;entryX=0.873;entryY=1.056;entryDx=0;entryDy=0;entryPerimeter=0;" parent="1" source="k0P5BtyZGf_VFYjJKuf1-174" target="k0P5BtyZGf_VFYjJKuf1-173" edge="1">
          <mxGeometry relative="1" as="geometry" />
        </mxCell>
        <mxCell id="k0P5BtyZGf_VFYjJKuf1-174" value="cant horas" style="ellipse;whiteSpace=wrap;html=1;" parent="1" vertex="1">
          <mxGeometry x="115" y="635" width="90" height="70" as="geometry" />
        </mxCell>
        <mxCell id="257k97ebxzjSR1Q1fA8a-36" style="edgeStyle=orthogonalEdgeStyle;rounded=0;orthogonalLoop=1;jettySize=auto;html=1;exitX=0.5;exitY=0;exitDx=0;exitDy=0;entryX=0.863;entryY=1.056;entryDx=0;entryDy=0;entryPerimeter=0;" parent="1" source="k0P5BtyZGf_VFYjJKuf1-175" target="k0P5BtyZGf_VFYjJKuf1-173" edge="1">
          <mxGeometry relative="1" as="geometry" />
        </mxCell>
        <mxCell id="k0P5BtyZGf_VFYjJKuf1-175" value="Codigo de modulo" style="ellipse;whiteSpace=wrap;html=1;fontColor=#FF0000;" parent="1" vertex="1">
          <mxGeometry x="-35" y="635" width="85" height="55" as="geometry" />
        </mxCell>
        <mxCell id="257k97ebxzjSR1Q1fA8a-35" style="edgeStyle=orthogonalEdgeStyle;rounded=0;orthogonalLoop=1;jettySize=auto;html=1;exitX=0.5;exitY=0;exitDx=0;exitDy=0;" parent="1" source="k0P5BtyZGf_VFYjJKuf1-176" edge="1">
          <mxGeometry relative="1" as="geometry">
            <mxPoint x="-80" y="550" as="targetPoint" />
          </mxGeometry>
        </mxCell>
        <mxCell id="k0P5BtyZGf_VFYjJKuf1-176" value="nombre" style="ellipse;whiteSpace=wrap;html=1;" parent="1" vertex="1">
          <mxGeometry x="45" y="635" width="70" height="60" as="geometry" />
        </mxCell>
        <mxCell id="k0P5BtyZGf_VFYjJKuf1-232" style="edgeStyle=orthogonalEdgeStyle;rounded=0;orthogonalLoop=1;jettySize=auto;html=1;exitX=1;exitY=0.5;exitDx=0;exitDy=0;entryX=0;entryY=0.5;entryDx=0;entryDy=0;" parent="1" source="k0P5BtyZGf_VFYjJKuf1-178" target="k0P5BtyZGf_VFYjJKuf1-185" edge="1">
          <mxGeometry relative="1" as="geometry" />
        </mxCell>
        <mxCell id="Qntxkk4oNxxuxuQH-sya-35" style="edgeStyle=orthogonalEdgeStyle;rounded=0;orthogonalLoop=1;jettySize=auto;html=1;entryX=0;entryY=0.5;entryDx=0;entryDy=0;exitX=0.25;exitY=0;exitDx=0;exitDy=0;" parent="1" source="k0P5BtyZGf_VFYjJKuf1-178" target="Qntxkk4oNxxuxuQH-sya-36" edge="1">
          <mxGeometry relative="1" as="geometry">
            <mxPoint x="-560" y="865" as="targetPoint" />
            <Array as="points">
              <mxPoint x="-490" y="110" />
              <mxPoint x="-990" y="110" />
              <mxPoint x="-990" y="865" />
            </Array>
            <mxPoint x="-290" y="140" as="sourcePoint" />
          </mxGeometry>
        </mxCell>
        <mxCell id="GlrDU-AuZKwdCGhjp-TW-34" style="edgeStyle=orthogonalEdgeStyle;rounded=0;orthogonalLoop=1;jettySize=auto;html=1;exitX=0.5;exitY=1;exitDx=0;exitDy=0;entryX=0.5;entryY=0;entryDx=0;entryDy=0;" parent="1" source="k0P5BtyZGf_VFYjJKuf1-178" target="Qntxkk4oNxxuxuQH-sya-1" edge="1">
          <mxGeometry relative="1" as="geometry">
            <Array as="points">
              <mxPoint x="-440" y="190" />
              <mxPoint x="-440" y="350" />
            </Array>
          </mxGeometry>
        </mxCell>
        <mxCell id="UgpuYVLv6B93RDD76h3x-26" style="edgeStyle=orthogonalEdgeStyle;rounded=0;orthogonalLoop=1;jettySize=auto;html=1;exitX=0.25;exitY=1;exitDx=0;exitDy=0;entryX=0.5;entryY=0;entryDx=0;entryDy=0;" parent="1" source="k0P5BtyZGf_VFYjJKuf1-178" target="UgpuYVLv6B93RDD76h3x-22" edge="1">
          <mxGeometry relative="1" as="geometry" />
        </mxCell>
        <mxCell id="k0P5BtyZGf_VFYjJKuf1-178" value="alumno" style="rounded=0;whiteSpace=wrap;html=1;" parent="1" vertex="1">
          <mxGeometry x="-520" y="130" width="120" height="60" as="geometry" />
        </mxCell>
        <mxCell id="GlrDU-AuZKwdCGhjp-TW-12" style="edgeStyle=orthogonalEdgeStyle;rounded=0;orthogonalLoop=1;jettySize=auto;html=1;exitX=0.5;exitY=1;exitDx=0;exitDy=0;entryX=0.5;entryY=0;entryDx=0;entryDy=0;" parent="1" source="k0P5BtyZGf_VFYjJKuf1-180" target="k0P5BtyZGf_VFYjJKuf1-178" edge="1">
          <mxGeometry relative="1" as="geometry">
            <Array as="points">
              <mxPoint x="-495" />
              <mxPoint x="-460" />
            </Array>
          </mxGeometry>
        </mxCell>
        <mxCell id="k0P5BtyZGf_VFYjJKuf1-180" value="edad" style="ellipse;whiteSpace=wrap;html=1;" parent="1" vertex="1">
          <mxGeometry x="-547.5" y="-90" width="105" height="70" as="geometry" />
        </mxCell>
        <mxCell id="GlrDU-AuZKwdCGhjp-TW-3" style="edgeStyle=orthogonalEdgeStyle;rounded=0;orthogonalLoop=1;jettySize=auto;html=1;exitX=0.5;exitY=1;exitDx=0;exitDy=0;" parent="1" source="k0P5BtyZGf_VFYjJKuf1-182" target="k0P5BtyZGf_VFYjJKuf1-178" edge="1">
          <mxGeometry relative="1" as="geometry">
            <Array as="points">
              <mxPoint x="-705" />
              <mxPoint x="-460" />
            </Array>
          </mxGeometry>
        </mxCell>
        <mxCell id="k0P5BtyZGf_VFYjJKuf1-182" value="RUN" style="ellipse;whiteSpace=wrap;html=1;strokeColor=#330000;fontColor=#FF2424;" parent="1" vertex="1">
          <mxGeometry x="-757.5" y="-90" width="105" height="70" as="geometry" />
        </mxCell>
        <mxCell id="GlrDU-AuZKwdCGhjp-TW-4" style="edgeStyle=orthogonalEdgeStyle;rounded=0;orthogonalLoop=1;jettySize=auto;html=1;exitX=0.5;exitY=1;exitDx=0;exitDy=0;entryX=0.5;entryY=0;entryDx=0;entryDy=0;" parent="1" source="k0P5BtyZGf_VFYjJKuf1-184" target="k0P5BtyZGf_VFYjJKuf1-178" edge="1">
          <mxGeometry relative="1" as="geometry">
            <Array as="points">
              <mxPoint x="-600" />
              <mxPoint x="-460" />
            </Array>
          </mxGeometry>
        </mxCell>
        <mxCell id="k0P5BtyZGf_VFYjJKuf1-184" value="nombre" style="ellipse;whiteSpace=wrap;html=1;" parent="1" vertex="1">
          <mxGeometry x="-652.5" y="-90" width="105" height="70" as="geometry" />
        </mxCell>
        <mxCell id="k0P5BtyZGf_VFYjJKuf1-233" style="edgeStyle=orthogonalEdgeStyle;rounded=0;orthogonalLoop=1;jettySize=auto;html=1;exitX=1;exitY=0.5;exitDx=0;exitDy=0;entryX=0;entryY=0.5;entryDx=0;entryDy=0;" parent="1" source="k0P5BtyZGf_VFYjJKuf1-185" target="Xfo1xRRLc3Q7_K_SqQdS-3" edge="1">
          <mxGeometry relative="1" as="geometry" />
        </mxCell>
        <mxCell id="k0P5BtyZGf_VFYjJKuf1-185" value="Se inscribe en" style="rhombus;whiteSpace=wrap;html=1;" parent="1" vertex="1">
          <mxGeometry x="-360" y="120" width="80" height="80" as="geometry" />
        </mxCell>
        <mxCell id="UgpuYVLv6B93RDD76h3x-15" style="edgeStyle=orthogonalEdgeStyle;rounded=0;orthogonalLoop=1;jettySize=auto;html=1;exitX=1;exitY=1;exitDx=0;exitDy=0;" parent="1" source="k0P5BtyZGf_VFYjJKuf1-212" edge="1">
          <mxGeometry relative="1" as="geometry">
            <mxPoint x="-740" y="270" as="targetPoint" />
          </mxGeometry>
        </mxCell>
        <mxCell id="UgpuYVLv6B93RDD76h3x-17" style="edgeStyle=orthogonalEdgeStyle;rounded=0;orthogonalLoop=1;jettySize=auto;html=1;exitX=0.5;exitY=1;exitDx=0;exitDy=0;entryX=1;entryY=0.5;entryDx=0;entryDy=0;" parent="1" source="k0P5BtyZGf_VFYjJKuf1-212" target="k0P5BtyZGf_VFYjJKuf1-93" edge="1">
          <mxGeometry relative="1" as="geometry" />
        </mxCell>
        <mxCell id="k0P5BtyZGf_VFYjJKuf1-212" value="se imparte durante:" style="rhombus;whiteSpace=wrap;html=1;" parent="1" vertex="1">
          <mxGeometry x="-785" y="240" width="70" height="70" as="geometry" />
        </mxCell>
        <mxCell id="k0P5BtyZGf_VFYjJKuf1-235" value="1:m" style="text;html=1;strokeColor=none;fillColor=none;align=center;verticalAlign=middle;whiteSpace=wrap;rounded=0;" parent="1" vertex="1">
          <mxGeometry x="-350" y="90" width="60" height="30" as="geometry" />
        </mxCell>
        <mxCell id="257k97ebxzjSR1Q1fA8a-50" style="edgeStyle=orthogonalEdgeStyle;rounded=0;orthogonalLoop=1;jettySize=auto;html=1;exitX=0.5;exitY=1;exitDx=0;exitDy=0;entryX=0.75;entryY=0;entryDx=0;entryDy=0;" parent="1" source="k0P5BtyZGf_VFYjJKuf1-249" target="Xfo1xRRLc3Q7_K_SqQdS-2" edge="1">
          <mxGeometry relative="1" as="geometry" />
        </mxCell>
        <mxCell id="k0P5BtyZGf_VFYjJKuf1-249" value="contrata a" style="rhombus;whiteSpace=wrap;html=1;" parent="1" vertex="1">
          <mxGeometry x="360" y="293.33" width="65" height="60" as="geometry" />
        </mxCell>
        <mxCell id="k0P5BtyZGf_VFYjJKuf1-254" value="1:M" style="text;html=1;strokeColor=none;fillColor=none;align=center;verticalAlign=middle;whiteSpace=wrap;rounded=0;rotation=30;" parent="1" vertex="1">
          <mxGeometry x="390" y="278.33" width="60" height="30" as="geometry" />
        </mxCell>
        <mxCell id="GlrDU-AuZKwdCGhjp-TW-2" style="edgeStyle=orthogonalEdgeStyle;rounded=0;orthogonalLoop=1;jettySize=auto;html=1;exitX=0;exitY=0.5;exitDx=0;exitDy=0;entryX=0.917;entryY=0.992;entryDx=0;entryDy=0;entryPerimeter=0;" parent="1" source="k0P5BtyZGf_VFYjJKuf1-282" target="k0P5BtyZGf_VFYjJKuf1-127" edge="1">
          <mxGeometry relative="1" as="geometry" />
        </mxCell>
        <mxCell id="k0P5BtyZGf_VFYjJKuf1-282" value="imparte clases en" style="rhombus;whiteSpace=wrap;html=1;" parent="1" vertex="1">
          <mxGeometry x="-421.25" y="675" width="112.5" height="115" as="geometry" />
        </mxCell>
        <mxCell id="k0P5BtyZGf_VFYjJKuf1-295" value="M:1" style="text;html=1;align=center;verticalAlign=middle;resizable=0;points=[];autosize=1;strokeColor=none;fillColor=none;" parent="1" vertex="1">
          <mxGeometry x="60" y="88" width="40" height="30" as="geometry" />
        </mxCell>
        <mxCell id="k0P5BtyZGf_VFYjJKuf1-296" value="N:M" style="text;html=1;align=center;verticalAlign=middle;resizable=0;points=[];autosize=1;strokeColor=none;fillColor=none;" parent="1" vertex="1">
          <mxGeometry x="-775" y="210" width="50" height="30" as="geometry" />
        </mxCell>
        <mxCell id="257k97ebxzjSR1Q1fA8a-18" style="edgeStyle=orthogonalEdgeStyle;rounded=0;orthogonalLoop=1;jettySize=auto;html=1;exitX=0.5;exitY=1;exitDx=0;exitDy=0;entryX=0;entryY=0.5;entryDx=0;entryDy=0;" parent="1" source="Qntxkk4oNxxuxuQH-sya-1" target="k0P5BtyZGf_VFYjJKuf1-173" edge="1">
          <mxGeometry relative="1" as="geometry" />
        </mxCell>
        <mxCell id="Qntxkk4oNxxuxuQH-sya-1" value="esta inscrito en" style="rhombus;whiteSpace=wrap;html=1;" parent="1" vertex="1">
          <mxGeometry x="-480" y="350" width="80" height="80" as="geometry" />
        </mxCell>
        <mxCell id="Qntxkk4oNxxuxuQH-sya-16" style="edgeStyle=orthogonalEdgeStyle;rounded=0;orthogonalLoop=1;jettySize=auto;html=1;exitX=0;exitY=0.5;exitDx=0;exitDy=0;entryX=0.5;entryY=0;entryDx=0;entryDy=0;" parent="1" source="Qntxkk4oNxxuxuQH-sya-12" target="k0P5BtyZGf_VFYjJKuf1-173" edge="1">
          <mxGeometry relative="1" as="geometry" />
        </mxCell>
        <mxCell id="Qntxkk4oNxxuxuQH-sya-12" value="inscribe alumnos" style="rhombus;whiteSpace=wrap;html=1;" parent="1" vertex="1">
          <mxGeometry x="30" y="230" width="80" height="80" as="geometry" />
        </mxCell>
        <mxCell id="Qntxkk4oNxxuxuQH-sya-25" style="edgeStyle=orthogonalEdgeStyle;rounded=0;orthogonalLoop=1;jettySize=auto;html=1;exitX=0;exitY=0.5;exitDx=0;exitDy=0;entryX=0.75;entryY=0;entryDx=0;entryDy=0;" parent="1" source="Qntxkk4oNxxuxuQH-sya-23" target="k0P5BtyZGf_VFYjJKuf1-178" edge="1">
          <mxGeometry relative="1" as="geometry" />
        </mxCell>
        <mxCell id="Qntxkk4oNxxuxuQH-sya-23" value="orienta" style="rhombus;whiteSpace=wrap;html=1;" parent="1" vertex="1">
          <mxGeometry x="-80" y="-90" width="80" height="80" as="geometry" />
        </mxCell>
        <mxCell id="Qntxkk4oNxxuxuQH-sya-34" style="edgeStyle=orthogonalEdgeStyle;rounded=0;orthogonalLoop=1;jettySize=auto;html=1;exitX=0.5;exitY=1;exitDx=0;exitDy=0;entryX=0;entryY=0.25;entryDx=0;entryDy=0;" parent="1" source="Qntxkk4oNxxuxuQH-sya-32" target="k0P5BtyZGf_VFYjJKuf1-127" edge="1">
          <mxGeometry relative="1" as="geometry">
            <Array as="points">
              <mxPoint x="-940" y="-80" />
              <mxPoint x="-940" y="523" />
            </Array>
          </mxGeometry>
        </mxCell>
        <mxCell id="Qntxkk4oNxxuxuQH-sya-32" value="consigue " style="rhombus;whiteSpace=wrap;html=1;" parent="1" vertex="1">
          <mxGeometry x="-890" y="-160" width="80" height="80" as="geometry" />
        </mxCell>
        <mxCell id="257k97ebxzjSR1Q1fA8a-48" style="edgeStyle=orthogonalEdgeStyle;rounded=0;orthogonalLoop=1;jettySize=auto;html=1;exitX=1;exitY=0.5;exitDx=0;exitDy=0;entryX=0.5;entryY=1;entryDx=0;entryDy=0;" parent="1" source="Qntxkk4oNxxuxuQH-sya-36" target="Xfo1xRRLc3Q7_K_SqQdS-2" edge="1">
          <mxGeometry relative="1" as="geometry" />
        </mxCell>
        <mxCell id="Qntxkk4oNxxuxuQH-sya-36" value="recibe clases de" style="rhombus;whiteSpace=wrap;html=1;" parent="1" vertex="1">
          <mxGeometry x="-925" y="820" width="90" height="90" as="geometry" />
        </mxCell>
        <mxCell id="257k97ebxzjSR1Q1fA8a-64" style="edgeStyle=orthogonalEdgeStyle;rounded=0;orthogonalLoop=1;jettySize=auto;html=1;exitX=0.25;exitY=1;exitDx=0;exitDy=0;entryX=0.5;entryY=0;entryDx=0;entryDy=0;" parent="1" source="GlrDU-AuZKwdCGhjp-TW-6" target="257k97ebxzjSR1Q1fA8a-19" edge="1">
          <mxGeometry relative="1" as="geometry">
            <Array as="points">
              <mxPoint x="-610" y="290" />
              <mxPoint x="-610" y="347" />
              <mxPoint x="-640" y="347" />
            </Array>
          </mxGeometry>
        </mxCell>
        <mxCell id="257k97ebxzjSR1Q1fA8a-66" style="edgeStyle=orthogonalEdgeStyle;rounded=0;orthogonalLoop=1;jettySize=auto;html=1;exitX=0.75;exitY=1;exitDx=0;exitDy=0;entryX=0.5;entryY=0;entryDx=0;entryDy=0;" parent="1" source="GlrDU-AuZKwdCGhjp-TW-6" target="257k97ebxzjSR1Q1fA8a-23" edge="1">
          <mxGeometry relative="1" as="geometry" />
        </mxCell>
        <mxCell id="UgpuYVLv6B93RDD76h3x-16" style="edgeStyle=orthogonalEdgeStyle;rounded=0;orthogonalLoop=1;jettySize=auto;html=1;exitX=0;exitY=0.5;exitDx=0;exitDy=0;entryX=1;entryY=0.5;entryDx=0;entryDy=0;" parent="1" source="GlrDU-AuZKwdCGhjp-TW-6" target="k0P5BtyZGf_VFYjJKuf1-212" edge="1">
          <mxGeometry relative="1" as="geometry" />
        </mxCell>
        <mxCell id="GlrDU-AuZKwdCGhjp-TW-6" value="clase" style="rounded=0;whiteSpace=wrap;html=1;fillColor=#f8cecc;strokeColor=#b85450;" parent="1" vertex="1">
          <mxGeometry x="-670" y="230" width="120" height="60" as="geometry" />
        </mxCell>
        <mxCell id="GlrDU-AuZKwdCGhjp-TW-8" value="" style="edgeStyle=orthogonalEdgeStyle;rounded=0;orthogonalLoop=1;jettySize=auto;html=1;" parent="1" source="GlrDU-AuZKwdCGhjp-TW-7" target="GlrDU-AuZKwdCGhjp-TW-6" edge="1">
          <mxGeometry relative="1" as="geometry" />
        </mxCell>
        <mxCell id="UgpuYVLv6B93RDD76h3x-14" style="edgeStyle=orthogonalEdgeStyle;rounded=0;orthogonalLoop=1;jettySize=auto;html=1;exitX=0.5;exitY=1;exitDx=0;exitDy=0;entryX=0.5;entryY=0;entryDx=0;entryDy=0;" parent="1" source="GlrDU-AuZKwdCGhjp-TW-7" target="GlrDU-AuZKwdCGhjp-TW-6" edge="1">
          <mxGeometry relative="1" as="geometry" />
        </mxCell>
        <mxCell id="GlrDU-AuZKwdCGhjp-TW-7" value="&lt;font color=&quot;#ff0505&quot;&gt;Id_clase&lt;/font&gt;" style="ellipse;whiteSpace=wrap;html=1;" parent="1" vertex="1">
          <mxGeometry x="-800" y="118" width="90" height="60" as="geometry" />
        </mxCell>
        <mxCell id="GlrDU-AuZKwdCGhjp-TW-13" style="edgeStyle=orthogonalEdgeStyle;rounded=0;orthogonalLoop=1;jettySize=auto;html=1;exitX=0.5;exitY=1;exitDx=0;exitDy=0;entryX=0.5;entryY=0;entryDx=0;entryDy=0;" parent="1" source="GlrDU-AuZKwdCGhjp-TW-10" target="GlrDU-AuZKwdCGhjp-TW-6" edge="1">
          <mxGeometry relative="1" as="geometry" />
        </mxCell>
        <mxCell id="GlrDU-AuZKwdCGhjp-TW-10" value="nombre clase" style="ellipse;whiteSpace=wrap;html=1;" parent="1" vertex="1">
          <mxGeometry x="-710" y="118" width="90" height="60" as="geometry" />
        </mxCell>
        <mxCell id="GlrDU-AuZKwdCGhjp-TW-15" style="edgeStyle=orthogonalEdgeStyle;rounded=0;orthogonalLoop=1;jettySize=auto;html=1;exitX=0.5;exitY=1;exitDx=0;exitDy=0;" parent="1" source="GlrDU-AuZKwdCGhjp-TW-11" target="GlrDU-AuZKwdCGhjp-TW-6" edge="1">
          <mxGeometry relative="1" as="geometry" />
        </mxCell>
        <mxCell id="GlrDU-AuZKwdCGhjp-TW-11" value="des. clase" style="ellipse;whiteSpace=wrap;html=1;" parent="1" vertex="1">
          <mxGeometry x="-620" y="118" width="90" height="60" as="geometry" />
        </mxCell>
        <mxCell id="257k97ebxzjSR1Q1fA8a-68" style="edgeStyle=orthogonalEdgeStyle;rounded=0;orthogonalLoop=1;jettySize=auto;html=1;exitX=0.5;exitY=1;exitDx=0;exitDy=0;entryX=0.5;entryY=0;entryDx=0;entryDy=0;" parent="1" source="GlrDU-AuZKwdCGhjp-TW-16" target="257k97ebxzjSR1Q1fA8a-67" edge="1">
          <mxGeometry relative="1" as="geometry" />
        </mxCell>
        <mxCell id="GlrDU-AuZKwdCGhjp-TW-16" value="semestre&lt;br&gt;" style="rounded=0;whiteSpace=wrap;html=1;" parent="1" vertex="1">
          <mxGeometry x="-332.5" y="343.33" width="90" height="45" as="geometry" />
        </mxCell>
        <mxCell id="257k97ebxzjSR1Q1fA8a-7" style="edgeStyle=orthogonalEdgeStyle;rounded=0;orthogonalLoop=1;jettySize=auto;html=1;exitX=1;exitY=0.5;exitDx=0;exitDy=0;entryX=0.5;entryY=0;entryDx=0;entryDy=0;" parent="1" source="GlrDU-AuZKwdCGhjp-TW-30" target="GlrDU-AuZKwdCGhjp-TW-16" edge="1">
          <mxGeometry relative="1" as="geometry" />
        </mxCell>
        <mxCell id="GlrDU-AuZKwdCGhjp-TW-30" value="cod_semestre" style="ellipse;whiteSpace=wrap;html=1;" parent="1" vertex="1">
          <mxGeometry x="-425" y="189.99999999999997" width="75" height="50" as="geometry" />
        </mxCell>
        <mxCell id="257k97ebxzjSR1Q1fA8a-10" style="edgeStyle=orthogonalEdgeStyle;rounded=0;orthogonalLoop=1;jettySize=auto;html=1;exitX=1;exitY=0.5;exitDx=0;exitDy=0;entryX=0.5;entryY=0;entryDx=0;entryDy=0;" parent="1" source="GlrDU-AuZKwdCGhjp-TW-31" target="GlrDU-AuZKwdCGhjp-TW-16" edge="1">
          <mxGeometry relative="1" as="geometry" />
        </mxCell>
        <mxCell id="GlrDU-AuZKwdCGhjp-TW-31" value="año" style="ellipse;whiteSpace=wrap;html=1;" parent="1" vertex="1">
          <mxGeometry x="-425" y="293.33" width="75" height="50" as="geometry" />
        </mxCell>
        <mxCell id="257k97ebxzjSR1Q1fA8a-8" style="edgeStyle=orthogonalEdgeStyle;rounded=0;orthogonalLoop=1;jettySize=auto;html=1;exitX=1;exitY=0.5;exitDx=0;exitDy=0;" parent="1" source="GlrDU-AuZKwdCGhjp-TW-32" edge="1">
          <mxGeometry relative="1" as="geometry">
            <mxPoint x="-287.50000000000045" y="340" as="targetPoint" />
          </mxGeometry>
        </mxCell>
        <mxCell id="GlrDU-AuZKwdCGhjp-TW-32" value="Nª semestre" style="ellipse;whiteSpace=wrap;html=1;" parent="1" vertex="1">
          <mxGeometry x="-430" y="240" width="80" height="53.33" as="geometry" />
        </mxCell>
        <mxCell id="257k97ebxzjSR1Q1fA8a-21" style="edgeStyle=orthogonalEdgeStyle;rounded=0;orthogonalLoop=1;jettySize=auto;html=1;exitX=0.5;exitY=1;exitDx=0;exitDy=0;entryX=0.5;entryY=0;entryDx=0;entryDy=0;" parent="1" source="257k97ebxzjSR1Q1fA8a-19" target="k0P5BtyZGf_VFYjJKuf1-127" edge="1">
          <mxGeometry relative="1" as="geometry" />
        </mxCell>
        <mxCell id="257k97ebxzjSR1Q1fA8a-19" value="se imparte en" style="rhombus;whiteSpace=wrap;html=1;" parent="1" vertex="1">
          <mxGeometry x="-670" y="400" width="60" height="66.67" as="geometry" />
        </mxCell>
        <mxCell id="257k97ebxzjSR1Q1fA8a-61" style="edgeStyle=orthogonalEdgeStyle;rounded=0;orthogonalLoop=1;jettySize=auto;html=1;exitX=1;exitY=0.5;exitDx=0;exitDy=0;entryX=0;entryY=0.75;entryDx=0;entryDy=0;" parent="1" source="257k97ebxzjSR1Q1fA8a-23" target="k0P5BtyZGf_VFYjJKuf1-173" edge="1">
          <mxGeometry relative="1" as="geometry">
            <Array as="points">
              <mxPoint x="-490" y="388" />
              <mxPoint x="-490" y="535" />
            </Array>
          </mxGeometry>
        </mxCell>
        <mxCell id="257k97ebxzjSR1Q1fA8a-23" value="es parte de" style="rhombus;whiteSpace=wrap;html=1;" parent="1" vertex="1">
          <mxGeometry x="-615" y="350" width="67.5" height="70" as="geometry" />
        </mxCell>
        <mxCell id="257k97ebxzjSR1Q1fA8a-27" value="Estado" style="rounded=0;whiteSpace=wrap;html=1;" parent="1" vertex="1">
          <mxGeometry x="-1140" y="815" width="120" height="60" as="geometry" />
        </mxCell>
        <mxCell id="257k97ebxzjSR1Q1fA8a-28" value="Fecha_Hora" style="rounded=0;whiteSpace=wrap;html=1;" parent="1" vertex="1">
          <mxGeometry x="-1130" y="492.5" width="120" height="60" as="geometry" />
        </mxCell>
        <mxCell id="257k97ebxzjSR1Q1fA8a-30" value="Usuario&lt;br&gt;" style="rounded=0;whiteSpace=wrap;html=1;" parent="1" vertex="1">
          <mxGeometry x="-1130" y="213.32999999999998" width="120" height="60" as="geometry" />
        </mxCell>
        <mxCell id="257k97ebxzjSR1Q1fA8a-65" value="N:M" style="text;html=1;strokeColor=none;fillColor=none;align=center;verticalAlign=middle;whiteSpace=wrap;rounded=0;rotation=90;" parent="1" vertex="1">
          <mxGeometry x="-625.06" y="423.33" width="60" height="30" as="geometry" />
        </mxCell>
        <mxCell id="257k97ebxzjSR1Q1fA8a-69" style="edgeStyle=orthogonalEdgeStyle;rounded=0;orthogonalLoop=1;jettySize=auto;html=1;exitX=1;exitY=0.5;exitDx=0;exitDy=0;entryX=0;entryY=0.25;entryDx=0;entryDy=0;" parent="1" source="257k97ebxzjSR1Q1fA8a-67" target="k0P5BtyZGf_VFYjJKuf1-173" edge="1">
          <mxGeometry relative="1" as="geometry" />
        </mxCell>
        <mxCell id="257k97ebxzjSR1Q1fA8a-67" value="dividido en" style="rhombus;whiteSpace=wrap;html=1;" parent="1" vertex="1">
          <mxGeometry x="-340" y="437.5" width="67.5" height="70" as="geometry" />
        </mxCell>
        <mxCell id="257k97ebxzjSR1Q1fA8a-73" value="M:1" style="text;html=1;strokeColor=none;fillColor=none;align=center;verticalAlign=middle;whiteSpace=wrap;rounded=0;" parent="1" vertex="1">
          <mxGeometry x="-80" y="-120" width="75" height="40" as="geometry" />
        </mxCell>
        <mxCell id="257k97ebxzjSR1Q1fA8a-76" value="M:1" style="text;html=1;strokeColor=none;fillColor=none;align=center;verticalAlign=middle;whiteSpace=wrap;rounded=0;" parent="1" vertex="1">
          <mxGeometry x="-820" y="-170" width="60" height="30" as="geometry" />
        </mxCell>
        <mxCell id="257k97ebxzjSR1Q1fA8a-77" value="N:M" style="text;html=1;strokeColor=none;fillColor=none;align=center;verticalAlign=middle;whiteSpace=wrap;rounded=0;rotation=30;" parent="1" vertex="1">
          <mxGeometry x="-575" y="340" width="60" height="30" as="geometry" />
        </mxCell>
        <mxCell id="257k97ebxzjSR1Q1fA8a-79" value="M:N" style="text;html=1;strokeColor=none;fillColor=none;align=center;verticalAlign=middle;whiteSpace=wrap;rounded=0;" parent="1" vertex="1">
          <mxGeometry x="-450" y="610" width="60" height="30" as="geometry" />
        </mxCell>
        <mxCell id="257k97ebxzjSR1Q1fA8a-80" value="M:1" style="text;html=1;strokeColor=none;fillColor=none;align=center;verticalAlign=middle;whiteSpace=wrap;rounded=0;" parent="1" vertex="1">
          <mxGeometry x="-390" y="645" width="60" height="30" as="geometry" />
        </mxCell>
        <mxCell id="257k97ebxzjSR1Q1fA8a-81" value="N:M" style="text;html=1;strokeColor=none;fillColor=none;align=center;verticalAlign=middle;whiteSpace=wrap;rounded=0;rotation=30;" parent="1" vertex="1">
          <mxGeometry x="-280" y="430" width="60" height="30" as="geometry" />
        </mxCell>
        <mxCell id="257k97ebxzjSR1Q1fA8a-83" value="M:1" style="text;html=1;strokeColor=none;fillColor=none;align=center;verticalAlign=middle;whiteSpace=wrap;rounded=0;" parent="1" vertex="1">
          <mxGeometry x="40" y="200" width="60" height="30" as="geometry" />
        </mxCell>
        <mxCell id="257k97ebxzjSR1Q1fA8a-85" value="N:M" style="text;html=1;strokeColor=none;fillColor=none;align=center;verticalAlign=middle;whiteSpace=wrap;rounded=0;" parent="1" vertex="1">
          <mxGeometry x="-902.5" y="780" width="60" height="30" as="geometry" />
        </mxCell>
        <mxCell id="257k97ebxzjSR1Q1fA8a-87" value="N:M" style="text;html=1;strokeColor=none;fillColor=none;align=center;verticalAlign=middle;whiteSpace=wrap;rounded=0;rotation=90;" parent="1" vertex="1">
          <mxGeometry x="-400" y="380" width="60" height="30" as="geometry" />
        </mxCell>
        <mxCell id="257k97ebxzjSR1Q1fA8a-107" style="edgeStyle=orthogonalEdgeStyle;rounded=0;orthogonalLoop=1;jettySize=auto;html=1;exitX=1;exitY=0.5;exitDx=0;exitDy=0;" parent="1" source="257k97ebxzjSR1Q1fA8a-88" target="257k97ebxzjSR1Q1fA8a-28" edge="1">
          <mxGeometry relative="1" as="geometry" />
        </mxCell>
        <mxCell id="257k97ebxzjSR1Q1fA8a-88" value="hora de registro" style="ellipse;whiteSpace=wrap;html=1;" parent="1" vertex="1">
          <mxGeometry x="-1290" y="482.5" width="120" height="80" as="geometry" />
        </mxCell>
        <mxCell id="257k97ebxzjSR1Q1fA8a-108" style="edgeStyle=orthogonalEdgeStyle;rounded=0;orthogonalLoop=1;jettySize=auto;html=1;exitX=1;exitY=0.5;exitDx=0;exitDy=0;entryX=0;entryY=0.5;entryDx=0;entryDy=0;" parent="1" source="257k97ebxzjSR1Q1fA8a-89" target="257k97ebxzjSR1Q1fA8a-28" edge="1">
          <mxGeometry relative="1" as="geometry" />
        </mxCell>
        <mxCell id="257k97ebxzjSR1Q1fA8a-89" value="fecha de registro" style="ellipse;whiteSpace=wrap;html=1;" parent="1" vertex="1">
          <mxGeometry x="-1290" y="565" width="120" height="80" as="geometry" />
        </mxCell>
        <mxCell id="257k97ebxzjSR1Q1fA8a-94" style="edgeStyle=orthogonalEdgeStyle;rounded=0;orthogonalLoop=1;jettySize=auto;html=1;exitX=1;exitY=0.5;exitDx=0;exitDy=0;entryX=0;entryY=0.5;entryDx=0;entryDy=0;" parent="1" target="257k97ebxzjSR1Q1fA8a-30" edge="1">
          <mxGeometry relative="1" as="geometry">
            <mxPoint x="-1280" y="243.32999999999998" as="sourcePoint" />
          </mxGeometry>
        </mxCell>
        <mxCell id="257k97ebxzjSR1Q1fA8a-97" style="edgeStyle=orthogonalEdgeStyle;rounded=0;orthogonalLoop=1;jettySize=auto;html=1;exitX=1;exitY=0.5;exitDx=0;exitDy=0;entryX=0;entryY=0.5;entryDx=0;entryDy=0;" parent="1" source="257k97ebxzjSR1Q1fA8a-95" target="257k97ebxzjSR1Q1fA8a-30" edge="1">
          <mxGeometry relative="1" as="geometry" />
        </mxCell>
        <mxCell id="257k97ebxzjSR1Q1fA8a-95" value="id usuario" style="ellipse;whiteSpace=wrap;html=1;" parent="1" vertex="1">
          <mxGeometry x="-1400" y="283.33" width="120" height="80" as="geometry" />
        </mxCell>
        <mxCell id="257k97ebxzjSR1Q1fA8a-98" style="edgeStyle=orthogonalEdgeStyle;rounded=0;orthogonalLoop=1;jettySize=auto;html=1;exitX=1;exitY=0.5;exitDx=0;exitDy=0;entryX=0;entryY=0.5;entryDx=0;entryDy=0;" parent="1" source="257k97ebxzjSR1Q1fA8a-96" target="257k97ebxzjSR1Q1fA8a-30" edge="1">
          <mxGeometry relative="1" as="geometry" />
        </mxCell>
        <mxCell id="257k97ebxzjSR1Q1fA8a-96" value="nombre usuario" style="ellipse;whiteSpace=wrap;html=1;" parent="1" vertex="1">
          <mxGeometry x="-1400" y="373.33" width="120" height="80" as="geometry" />
        </mxCell>
        <mxCell id="257k97ebxzjSR1Q1fA8a-103" style="edgeStyle=orthogonalEdgeStyle;rounded=0;orthogonalLoop=1;jettySize=auto;html=1;exitX=0.5;exitY=1;exitDx=0;exitDy=0;entryX=0;entryY=0.5;entryDx=0;entryDy=0;" parent="1" source="257k97ebxzjSR1Q1fA8a-99" target="257k97ebxzjSR1Q1fA8a-27" edge="1">
          <mxGeometry relative="1" as="geometry" />
        </mxCell>
        <mxCell id="257k97ebxzjSR1Q1fA8a-99" value="Id_estado" style="ellipse;whiteSpace=wrap;html=1;" parent="1" vertex="1">
          <mxGeometry x="-1460" y="685" width="120" height="80" as="geometry" />
        </mxCell>
        <mxCell id="257k97ebxzjSR1Q1fA8a-105" style="edgeStyle=orthogonalEdgeStyle;rounded=0;orthogonalLoop=1;jettySize=auto;html=1;exitX=0.5;exitY=1;exitDx=0;exitDy=0;entryX=0;entryY=0.5;entryDx=0;entryDy=0;" parent="1" source="257k97ebxzjSR1Q1fA8a-100" target="257k97ebxzjSR1Q1fA8a-27" edge="1">
          <mxGeometry relative="1" as="geometry" />
        </mxCell>
        <mxCell id="257k97ebxzjSR1Q1fA8a-100" value="fecha_hora" style="ellipse;whiteSpace=wrap;html=1;" parent="1" vertex="1">
          <mxGeometry x="-1340" y="685" width="120" height="80" as="geometry" />
        </mxCell>
        <mxCell id="257k97ebxzjSR1Q1fA8a-106" style="edgeStyle=orthogonalEdgeStyle;rounded=0;orthogonalLoop=1;jettySize=auto;html=1;exitX=0.5;exitY=1;exitDx=0;exitDy=0;entryX=0;entryY=0.5;entryDx=0;entryDy=0;" parent="1" source="257k97ebxzjSR1Q1fA8a-101" target="257k97ebxzjSR1Q1fA8a-27" edge="1">
          <mxGeometry relative="1" as="geometry" />
        </mxCell>
        <mxCell id="257k97ebxzjSR1Q1fA8a-101" value="nombre estado" style="ellipse;whiteSpace=wrap;html=1;" parent="1" vertex="1">
          <mxGeometry x="-1220" y="685" width="120" height="80" as="geometry" />
        </mxCell>
        <mxCell id="UgpuYVLv6B93RDD76h3x-27" style="edgeStyle=orthogonalEdgeStyle;rounded=0;orthogonalLoop=1;jettySize=auto;html=1;exitX=0;exitY=0.5;exitDx=0;exitDy=0;entryX=1;entryY=0.75;entryDx=0;entryDy=0;" parent="1" source="UgpuYVLv6B93RDD76h3x-22" target="GlrDU-AuZKwdCGhjp-TW-6" edge="1">
          <mxGeometry relative="1" as="geometry" />
        </mxCell>
        <mxCell id="UgpuYVLv6B93RDD76h3x-22" value="recibe" style="rhombus;whiteSpace=wrap;html=1;" parent="1" vertex="1">
          <mxGeometry x="-530" y="240" width="67.5" height="70" as="geometry" />
        </mxCell>
        <mxCell id="UgpuYVLv6B93RDD76h3x-28" value="N:M" style="text;html=1;strokeColor=none;fillColor=none;align=center;verticalAlign=middle;whiteSpace=wrap;rounded=0;rotation=30;" parent="1" vertex="1">
          <mxGeometry x="-500" y="230" width="60" height="30" as="geometry" />
        </mxCell>
        <mxCell id="vm4puUW8V1VwVMx6bIQp-1" value="permisos de usuario" style="ellipse;whiteSpace=wrap;html=1;" parent="1" vertex="1">
          <mxGeometry x="-1400" y="203.32999999999998" width="120" height="80" as="geometry" />
        </mxCell>
      </root>
    </mxGraphModel>
  </diagram>
</mxfile>
